<svg width="283" height="444" viewBox="0 0 283 444" fill="none" xmlns="http://www.w3.org/2000/svg">
<g opacity="0.2">
<path opacity="0.18" d="M483.751 389.193C472.394 405.461 455.602 418.269 436.284 422.587C414.13 427.527 391.282 421.182 369.498 414.956C337.39 405.757 304.351 396.75 271.121 399.841C215.811 404.914 166.792 442.848 111.275 443.987C94.0484 444.234 76.9567 440.916 61.0704 434.241C45.1841 427.565 30.8456 417.677 18.9532 405.195C12.7059 398.54 7.13792 391.071 3.84441 382.523C0.0930632 372.688 -0.394313 361.892 0.225989 351.377C1.8949 323.41 10.9631 297.706 25.7913 274.472L26.1458 273.91C41.3454 250.134 50.1002 222.803 51.5486 194.61C52.0655 184.346 51.5486 174.038 52.3314 163.789C53.7049 144.252 59.4058 125.204 67.1005 107.22C78.384 80.9393 94.5267 56.2559 116.99 38.701C132.232 26.7808 149.926 18.4692 167.456 10.276C176.451 6.061 185.622 1.80168 195.518 0.455856C202.402 -0.285927 209.353 -0.121849 216.195 0.943903C222.102 1.69323 227.916 2.72355 233.637 4.03487C267.152 11.7372 298.188 27.7748 323.876 50.6656C350.903 74.639 373.471 101.482 395.89 129.729C426.551 168.344 461.878 204.09 483.855 248.251C488.056 256.686 491.616 265.426 494.503 274.398C506.968 313.131 506.688 356.42 483.751 389.193Z" fill="white"/>
<path opacity="0.39" d="M280.103 412.352C399.778 412.352 496.794 394.85 496.794 373.261C496.794 351.672 399.778 334.17 280.103 334.17C160.428 334.17 63.4121 351.672 63.4121 373.261C63.4121 394.85 160.428 412.352 280.103 412.352Z" fill="white"/>
<path d="M190.457 402.907C123.41 401.944 69.3551 378.969 69.7075 351.647C69.7075 348.593 67.3583 331.397 68.7443 328.672C79.3157 305.673 132.173 302.831 191.843 303.817C250.573 304.663 299.789 303.817 310.783 326.487C312.357 329.729 312.662 351.788 312.592 355.077C312.169 382.469 257.503 403.729 190.457 402.907Z" fill="#FCAE8C"/>
<path d="M302.051 323.431C302.323 296.069 248.18 273.347 181.119 272.68C114.058 272.013 59.4741 293.653 59.2019 321.015C58.9297 348.376 113.073 371.098 180.133 371.765C247.194 372.432 301.779 350.792 302.051 323.431Z" fill="#FCFAED"/>
<path d="M293.714 332.042C294.048 308.73 248.003 289.168 190.87 288.351C133.737 287.533 87.1507 305.768 86.817 329.081C86.4834 352.393 132.528 371.955 189.661 372.772C246.794 373.59 293.38 355.355 293.714 332.042Z" fill="#FCAE8C"/>
<path d="M125.008 325.573L141.594 325.831C141.918 323.678 142.755 321.633 144.034 319.871C145.314 318.109 146.999 316.68 148.947 315.706L159.918 317.468C158.032 318.363 156.393 319.703 155.14 321.373C153.888 323.043 153.061 324.992 152.729 327.053C152.729 331.751 159.377 335.087 168.727 335.252C172.333 335.509 175.952 334.99 179.34 333.729C182.727 332.469 185.806 330.497 188.367 327.946C192.027 324.154 196.492 321.231 201.432 319.394C206.371 317.556 211.66 316.85 216.909 317.327C230.582 317.327 240.848 321.579 243.244 327.805L259.829 328.063V332.198L243.949 331.963C243.669 333.748 242.997 335.449 241.981 336.944C240.966 338.438 239.632 339.69 238.076 340.608L227.246 338.728C228.786 337.883 230.1 336.68 231.077 335.221C232.055 333.761 232.666 332.088 232.86 330.342C232.86 325.267 225.367 323.153 218.765 323.036C215.223 322.831 211.681 323.453 208.419 324.851C205.158 326.249 202.266 328.386 199.972 331.093C192.924 337.883 184.373 341.219 169.596 341.219C156.629 341.219 144.295 337.225 141.805 330.224H124.75L125.008 325.573Z" fill="#FCFAED"/>
<path d="M202.955 364.357C135.885 363.393 81.8296 340.465 82.2289 313.073C82.2289 310.043 79.8797 292.823 81.2658 290.098C91.8372 267.123 144.694 264.421 204.364 265.244C263.094 266.113 312.287 265.244 323.257 287.913C324.878 291.155 325.137 313.214 325.09 316.503C324.737 343.825 270.001 365.296 202.955 364.357Z" fill="#FCAE8C"/>
<path d="M324.225 293.669C324.616 266.309 270.573 243.352 203.516 242.392C136.458 241.432 81.7803 262.834 81.3887 290.194C80.9971 317.554 135.04 340.511 202.098 341.471C269.155 342.431 323.833 321.029 324.225 293.669Z" fill="#FCFAED"/>
<path d="M306.253 293.413C306.587 270.1 260.542 250.539 203.409 249.721C146.276 248.904 99.6898 267.139 99.3561 290.452C99.0224 313.764 145.067 333.325 202.2 334.143C259.333 334.961 305.919 316.725 306.253 293.413Z" fill="#FCAE8C"/>
<path d="M137.553 287.301H154.115C154.44 285.144 155.279 283.098 156.564 281.335C157.848 279.572 159.538 278.145 161.492 277.176L172.486 278.961C170.59 279.822 168.939 281.144 167.684 282.805C166.428 284.467 165.608 286.416 165.297 288.475C165.297 293.174 171.922 296.58 181.225 296.674C184.839 296.968 188.473 296.469 191.874 295.211C195.274 293.953 198.359 291.967 200.911 289.391C204.564 285.581 209.031 282.645 213.977 280.802C218.923 278.96 224.222 278.258 229.478 278.75C243.08 278.75 253.416 283.049 255.789 289.227L272.351 289.485V293.644L256.4 293.385C256.154 295.182 255.497 296.897 254.478 298.397C253.459 299.897 252.106 301.14 250.527 302.03L239.744 300.221C241.284 299.366 242.601 298.158 243.585 296.696C244.569 295.235 245.193 293.56 245.405 291.811C245.405 286.76 237.982 284.623 231.31 284.529C227.788 284.329 224.266 284.931 221.011 286.29C217.755 287.649 214.851 289.73 212.516 292.375C205.469 299.141 196.941 302.5 182.141 302.5C169.15 302.5 156.84 298.436 154.374 291.506L137.318 291.247L137.553 287.301Z" fill="#FCFAED"/>
<path d="M324.227 252.698C324.618 225.338 270.575 202.381 203.518 201.421C136.46 200.461 81.7823 221.863 81.3907 249.223C80.9991 276.583 135.042 299.54 202.1 300.5C269.157 301.46 323.835 280.058 324.227 252.698Z" fill="#FCFAED"/>
<path d="M306.259 243.837C306.593 220.525 260.548 200.963 203.415 200.146C146.282 199.328 99.6956 217.563 99.362 240.876C99.0283 264.188 145.073 283.75 202.206 284.567C259.339 285.385 305.925 267.15 306.259 243.837Z" fill="#FCAE8C"/>
<path d="M137.553 246.005L154.115 246.264C154.43 244.104 155.266 242.053 156.551 240.289C157.837 238.525 159.532 237.1 161.492 236.138L172.486 237.853C170.588 238.732 168.938 240.067 167.684 241.74C166.429 243.413 165.609 245.371 165.297 247.438C165.297 252.137 171.922 255.519 181.225 255.637C184.84 255.926 188.475 255.422 191.876 254.16C195.276 252.898 198.36 250.909 200.911 248.331C204.565 244.523 209.033 241.591 213.979 239.752C218.926 237.913 224.224 237.216 229.478 237.712C243.08 237.712 253.416 242.011 255.789 248.19L272.351 248.448V252.583L256.4 252.348C256.146 254.142 255.484 255.854 254.466 257.352C253.448 258.851 252.101 260.096 250.527 260.993L239.791 259.255C241.333 258.408 242.652 257.205 243.636 255.746C244.621 254.288 245.244 252.615 245.452 250.868C245.452 245.794 238.029 243.679 231.357 243.562C227.817 243.379 224.282 244.01 221.024 245.407C217.766 246.804 214.872 248.929 212.563 251.62C205.516 258.409 196.965 261.745 182.188 261.745C169.197 261.745 156.887 257.704 154.397 250.75L137.342 250.516L137.553 246.005Z" fill="#FCFAED"/>
<path d="M203.096 277.178C136.026 276.356 81.9239 253.498 82.2293 226.154C82.2293 223.123 79.8801 205.927 81.2192 203.178C91.7436 180.18 144.648 177.337 204.247 178.065C262.977 178.794 312.311 177.83 323.258 200.477C324.832 203.719 325.184 225.778 325.137 229.067C324.785 256.458 270.166 277.836 203.096 277.178Z" fill="#FCAE8C"/>
<path d="M324.41 197.696C324.682 170.335 270.539 147.613 203.479 146.946C136.418 146.279 81.8335 167.919 81.5612 195.28C81.289 222.642 135.432 245.363 202.493 246.03C269.554 246.698 324.138 225.058 324.41 197.696Z" fill="#FCFAED"/>
<path d="M132.995 203.51L149.58 203.768C149.904 201.614 150.741 199.57 152.021 197.808C153.301 196.046 154.985 194.617 156.933 193.643L167.904 195.428C166.018 196.316 164.377 197.652 163.124 199.318C161.872 200.984 161.045 202.931 160.715 204.99C160.715 209.688 167.364 213.024 176.713 213.188C180.317 213.446 183.934 212.929 187.321 211.673C190.709 210.417 193.788 208.45 196.353 205.906C200.011 202.11 204.475 199.183 209.415 197.341C214.355 195.499 219.645 194.79 224.896 195.264C238.568 195.264 248.834 199.516 251.23 205.741L267.816 206V210.134L251.935 209.899C251.655 211.685 250.983 213.386 249.968 214.88C248.952 216.375 247.618 217.626 246.062 218.545L235.232 216.665C236.772 215.82 238.086 214.617 239.064 213.157C240.041 211.698 240.652 210.024 240.847 208.278C240.847 203.204 233.353 201.09 226.752 200.996C223.21 200.781 219.667 201.396 216.405 202.79C213.142 204.185 210.25 206.322 207.958 209.03C200.91 215.819 192.359 219.155 177.583 219.155C164.615 219.155 152.282 215.162 149.792 208.161H132.736L132.995 203.51Z" fill="#FCFAED"/>
<path d="M327.979 161.967C328.37 134.607 274.327 111.649 207.27 110.69C140.212 109.73 85.5342 131.131 85.1426 158.491C84.751 185.851 138.794 208.809 205.852 209.769C272.909 210.729 327.587 189.327 327.979 161.967Z" fill="#FCFAED"/>
<path d="M310.009 161.708C310.343 138.396 264.298 118.835 207.165 118.017C150.032 117.199 103.446 135.435 103.112 158.747C102.778 182.06 148.823 201.621 205.956 202.439C263.089 203.256 309.675 185.021 310.009 161.708Z" fill="#FCAE8C"/>
<path d="M145.54 165.287H162.102C162.426 163.13 163.266 161.084 164.55 159.321C165.834 157.558 167.525 156.132 169.478 155.162L180.473 156.947C178.591 157.798 176.95 159.101 175.696 160.741C174.442 162.381 173.613 164.306 173.284 166.344C173.284 171.042 179.909 174.449 189.212 174.543C192.826 174.837 196.46 174.337 199.861 173.079C203.261 171.821 206.346 169.835 208.898 167.26C212.555 163.466 217.02 160.545 221.962 158.715C226.904 156.884 232.195 156.192 237.441 156.689C251.043 156.689 261.379 160.988 263.752 167.166L280.196 167.425V171.583L264.245 171.324C264 173.121 263.342 174.836 262.323 176.336C261.304 177.836 259.952 179.079 258.372 179.969L247.589 178.161C249.13 177.305 250.446 176.097 251.431 174.636C252.415 173.174 253.038 171.5 253.251 169.75C253.251 164.7 245.828 162.562 239.156 162.468C235.634 162.268 232.112 162.87 228.857 164.229C225.601 165.589 222.697 167.669 220.362 170.314C213.315 177.103 204.787 180.439 189.987 180.439C176.996 180.439 164.686 176.375 162.219 169.445L145.164 169.187L145.54 165.287Z" fill="#FCFAED"/>
<path d="M326.125 122.952C326.517 95.5924 272.474 72.6347 205.416 71.6749C138.359 70.7151 83.6807 92.1168 83.2891 119.477C82.8975 146.837 136.941 169.795 203.998 170.754C271.055 171.714 325.734 150.312 326.125 122.952Z" fill="#FCFAED"/>
</g>
</svg>
